<svg width="198" height="65" viewBox="0 0 198 65" fill="none" xmlns="http://www.w3.org/2000/svg">
<g clip-path="url(#clip0_373_491)">
<rect width="198" height="65" rx="5" fill="#FCF9F2" stroke="#202124" stroke-width="5"/>
<path d="M24.8333 45.25L22.5 49.9167C19.5279 48.6782 16.4502 47.4398 13.1783 45.3083C12.0373 44.5649 11.3455 43.3017 11.3181 41.9402C11.1757 34.9507 12.8155 27.9238 16.9673 20.4945C17.5107 19.5221 18.416 18.8093 19.466 18.4365C21.9709 17.5475 23.6713 16.8603 26.5833 16.375L28.3333 19.5833C28.3333 19.5833 30.0833 19 33 19C35.9166 19 37.6666 19.5833 37.6666 19.5833L39.4166 16.375C42.3286 16.8603 44.029 17.5475 46.5339 18.4365C47.5839 18.8093 48.4892 19.5221 49.0326 20.4945C53.1845 27.9238 54.8242 34.9507 54.6822 41.9402C54.6545 43.3017 53.9626 44.5649 52.8216 45.3083C49.5497 47.4398 46.4723 48.6782 43.5 49.9167L41.1666 45.25M21.3333 42.9167C21.3333 42.9167 27.1666 45.8333 33 45.8333C38.8333 45.8333 44.6666 42.9167 44.6666 42.9167" stroke="#202124" stroke-width="3.5" stroke-linecap="round" stroke-linejoin="round"/>
<path d="M25.7084 38.8335C27.8025 38.8335 29.5001 36.8747 29.5001 34.4585C29.5001 32.0423 27.8025 30.0835 25.7084 30.0835C23.6143 30.0835 21.9167 32.0423 21.9167 34.4585C21.9167 36.8747 23.6143 38.8335 25.7084 38.8335Z" fill="#202124"/>
<path d="M40.2917 38.8335C42.3857 38.8335 44.0833 36.8747 44.0833 34.4585C44.0833 32.0423 42.3857 30.0835 40.2917 30.0835C38.1976 30.0835 36.5 32.0423 36.5 34.4585C36.5 36.8747 38.1976 38.8335 40.2917 38.8335Z" fill="#202124"/>
<path d="M76.7891 38.9248C77.611 38.9248 78.2865 38.8394 78.8154 38.6685C79.7594 38.3511 80.5326 37.7407 81.1348 36.8374C81.6149 36.1131 81.9608 35.1854 82.1724 34.0542C82.2944 33.3787 82.3555 32.7521 82.3555 32.1743C82.3555 29.9526 81.9119 28.2274 81.0249 26.9985C80.146 25.7697 78.7259 25.1553 76.7646 25.1553H72.4556V38.9248H76.7891ZM70.0142 23.0679H77.2773C79.7432 23.0679 81.6556 23.9427 83.0146 25.6924C84.2272 27.2712 84.8335 29.2935 84.8335 31.7593C84.8335 33.6636 84.4754 35.3848 83.7593 36.9229C82.4979 39.641 80.3291 41 77.2529 41H70.0142V23.0679ZM87.6777 27.9873H89.9116V41H87.6777V27.9873ZM87.6777 23.0679H89.9116V25.5581H87.6777V23.0679ZM94.5503 36.8984C94.6154 37.6309 94.7985 38.1924 95.0996 38.583C95.653 39.291 96.6133 39.645 97.9805 39.645C98.7943 39.645 99.5104 39.4701 100.129 39.1201C100.747 38.762 101.057 38.2127 101.057 37.4722C101.057 36.9106 100.808 36.4834 100.312 36.1904C99.9946 36.0114 99.368 35.8039 98.4321 35.5679L96.6865 35.1284C95.5716 34.8517 94.7497 34.5425 94.2207 34.2007C93.2767 33.6066 92.8047 32.7847 92.8047 31.7349C92.8047 30.4979 93.2482 29.4969 94.1353 28.7319C95.0304 27.967 96.2308 27.5845 97.7363 27.5845C99.7057 27.5845 101.126 28.1623 101.997 29.3179C102.542 30.0503 102.806 30.8397 102.79 31.686H100.715C100.674 31.1896 100.499 30.738 100.19 30.3311C99.6854 29.7533 98.8105 29.4644 97.5654 29.4644C96.7354 29.4644 96.1047 29.623 95.6733 29.9404C95.2502 30.2578 95.0386 30.6769 95.0386 31.1978C95.0386 31.7674 95.3193 32.2231 95.8809 32.5649C96.2064 32.7684 96.6865 32.9474 97.3213 33.1021L98.7739 33.4561C100.353 33.8385 101.411 34.2088 101.948 34.5669C102.802 35.1284 103.229 36.0114 103.229 37.2158C103.229 38.3796 102.786 39.3846 101.899 40.231C101.02 41.0773 99.6772 41.5005 97.8706 41.5005C95.9256 41.5005 94.5462 41.061 93.7324 40.1821C92.9268 39.2951 92.4954 38.2005 92.4385 36.8984H94.5503ZM110.786 27.5479C112.259 27.5479 113.455 27.9059 114.375 28.6221C115.302 29.3382 115.86 30.5711 116.047 32.3208H113.911C113.78 31.5151 113.483 30.8478 113.02 30.3188C112.556 29.7817 111.811 29.5132 110.786 29.5132C109.386 29.5132 108.385 30.1968 107.783 31.564C107.392 32.451 107.197 33.5456 107.197 34.8477C107.197 36.1579 107.473 37.2606 108.027 38.1558C108.58 39.0509 109.451 39.4985 110.639 39.4985C111.551 39.4985 112.271 39.2218 112.8 38.6685C113.337 38.1069 113.707 37.342 113.911 36.3735H116.047C115.803 38.1069 115.192 39.3765 114.216 40.1821C113.239 40.9797 111.99 41.3784 110.468 41.3784C108.759 41.3784 107.396 40.7559 106.379 39.5107C105.362 38.2575 104.853 36.695 104.853 34.8232C104.853 32.5283 105.41 30.742 106.525 29.4644C107.64 28.1867 109.06 27.5479 110.786 27.5479ZM123.432 39.584C124.889 39.584 125.886 39.0347 126.423 37.936C126.968 36.8293 127.241 35.6004 127.241 34.2495C127.241 33.0288 127.045 32.036 126.655 31.271C126.036 30.0666 124.97 29.4644 123.457 29.4644C122.114 29.4644 121.137 29.9771 120.527 31.0024C119.917 32.0278 119.611 33.2648 119.611 34.7134C119.611 36.105 119.917 37.2646 120.527 38.1924C121.137 39.1201 122.106 39.584 123.432 39.584ZM123.518 27.5479C125.202 27.5479 126.626 28.1094 127.79 29.2324C128.954 30.3555 129.536 32.0075 129.536 34.1885C129.536 36.2962 129.023 38.0378 127.998 39.4131C126.972 40.7884 125.381 41.4761 123.225 41.4761C121.426 41.4761 119.998 40.8698 118.94 39.6572C117.882 38.4365 117.353 36.8008 117.353 34.75C117.353 32.5527 117.91 30.8031 119.025 29.501C120.14 28.1989 121.638 27.5479 123.518 27.5479ZM132.221 27.9263H134.309V30.1846C134.479 29.7451 134.899 29.2121 135.566 28.5854C136.233 27.9507 137.002 27.6333 137.873 27.6333C137.914 27.6333 137.983 27.6374 138.081 27.6455C138.178 27.6536 138.345 27.6699 138.581 27.6943V30.0137C138.451 29.9893 138.329 29.973 138.215 29.9648C138.109 29.9567 137.991 29.9526 137.861 29.9526C136.754 29.9526 135.904 30.3107 135.31 31.0269C134.715 31.7349 134.418 32.5527 134.418 33.4805V41H132.221V27.9263ZM141.877 34.6157C141.877 36.0155 142.174 37.1873 142.768 38.1313C143.362 39.0754 144.314 39.5474 145.625 39.5474C146.642 39.5474 147.476 39.112 148.127 38.2412C148.786 37.3623 149.116 36.105 149.116 34.4692C149.116 32.8172 148.778 31.5965 148.103 30.8071C147.427 30.0096 146.593 29.6108 145.6 29.6108C144.493 29.6108 143.594 30.034 142.902 30.8804C142.219 31.7267 141.877 32.9718 141.877 34.6157ZM145.185 27.6943C146.186 27.6943 147.024 27.9059 147.7 28.3291C148.09 28.5732 148.534 29.0005 149.03 29.6108V23.0068H151.142V41H149.165V39.1812C148.652 39.9868 148.046 40.5687 147.346 40.9268C146.646 41.2848 145.844 41.4639 144.941 41.4639C143.484 41.4639 142.223 40.8535 141.157 39.6328C140.091 38.404 139.558 36.7723 139.558 34.7378C139.558 32.8335 140.042 31.1855 141.01 29.7939C141.987 28.3942 143.378 27.6943 145.185 27.6943Z" fill="black"/>
</g>
<defs>
<clipPath id="clip0_373_491">
<rect width="198" height="65" fill="white"/>
</clipPath>
</defs>
</svg>
