<svg width="198" height="65" viewBox="0 0 198 65" fill="none" xmlns="http://www.w3.org/2000/svg">
<g clip-path="url(#clip0_416_64)">
<rect width="198" height="65" rx="5" fill="#FCF9F2" stroke="#202124" stroke-width="5"/>
<path d="M71.0884 23.0679L74.4697 37.6553L78.5225 23.0679H81.1592L85.2119 37.6553L88.5933 23.0679H91.2544L86.5425 41H83.9912L79.853 26.1318L75.6904 41H73.1392L68.4517 23.0679H71.0884ZM98.2246 27.6333C99.1523 27.6333 100.052 27.853 100.922 28.2925C101.793 28.7238 102.456 29.2853 102.912 29.9771C103.352 30.6362 103.645 31.4053 103.791 32.2842C103.921 32.8864 103.986 33.8467 103.986 35.165H94.4038C94.4445 36.4915 94.7578 37.5576 95.3438 38.3633C95.9297 39.1608 96.8371 39.5596 98.0659 39.5596C99.2134 39.5596 100.129 39.1812 100.812 38.4243C101.203 37.9849 101.48 37.4762 101.643 36.8984H103.803C103.746 37.3786 103.555 37.9157 103.229 38.5098C102.912 39.0957 102.554 39.5758 102.155 39.9502C101.488 40.6012 100.662 41.0407 99.6772 41.2686C99.1483 41.3988 98.5501 41.4639 97.8828 41.4639C96.2552 41.4639 94.8758 40.8739 93.7446 39.6938C92.6134 38.5057 92.0479 36.8455 92.0479 34.7134C92.0479 32.6138 92.6175 30.9089 93.7568 29.5986C94.8962 28.2884 96.3854 27.6333 98.2246 27.6333ZM101.728 33.4194C101.639 32.4673 101.431 31.7064 101.105 31.1367C100.503 30.0788 99.4982 29.5498 98.0903 29.5498C97.0812 29.5498 96.2349 29.916 95.5513 30.6484C94.8677 31.3727 94.5055 32.2964 94.4648 33.4194H101.728ZM106.525 23.0068H108.662V29.5132C109.142 28.8866 109.715 28.4105 110.383 28.085C111.05 27.7513 111.774 27.5845 112.556 27.5845C114.183 27.5845 115.502 28.146 116.511 29.269C117.528 30.384 118.037 32.0319 118.037 34.2129C118.037 36.2799 117.536 37.9971 116.535 39.3643C115.534 40.7314 114.147 41.415 112.373 41.415C111.38 41.415 110.542 41.175 109.858 40.6948C109.451 40.41 109.016 39.9543 108.552 39.3276V41H106.525V23.0068ZM112.238 39.4741C113.426 39.4741 114.313 39.0021 114.899 38.0581C115.493 37.1141 115.791 35.869 115.791 34.3228C115.791 32.9474 115.493 31.8081 114.899 30.9048C114.313 30.0015 113.447 29.5498 112.299 29.5498C111.298 29.5498 110.419 29.9201 109.663 30.6606C108.914 31.4012 108.54 32.6219 108.54 34.3228C108.54 35.5516 108.694 36.5485 109.003 37.3135C109.581 38.7539 110.66 39.4741 112.238 39.4741ZM121.918 36.8984C121.984 37.6309 122.167 38.1924 122.468 38.583C123.021 39.291 123.981 39.645 125.349 39.645C126.162 39.645 126.879 39.4701 127.497 39.1201C128.116 38.762 128.425 38.2127 128.425 37.4722C128.425 36.9106 128.177 36.4834 127.68 36.1904C127.363 36.0114 126.736 35.8039 125.8 35.5679L124.055 35.1284C122.94 34.8517 122.118 34.5425 121.589 34.2007C120.645 33.6066 120.173 32.7847 120.173 31.7349C120.173 30.4979 120.616 29.4969 121.503 28.7319C122.399 27.967 123.599 27.5845 125.104 27.5845C127.074 27.5845 128.494 28.1623 129.365 29.3179C129.91 30.0503 130.174 30.8397 130.158 31.686H128.083C128.042 31.1896 127.867 30.738 127.558 30.3311C127.054 29.7533 126.179 29.4644 124.934 29.4644C124.104 29.4644 123.473 29.623 123.042 29.9404C122.618 30.2578 122.407 30.6769 122.407 31.1978C122.407 31.7674 122.688 32.2231 123.249 32.5649C123.575 32.7684 124.055 32.9474 124.689 33.1021L126.142 33.4561C127.721 33.8385 128.779 34.2088 129.316 34.5669C130.17 35.1284 130.598 36.0114 130.598 37.2158C130.598 38.3796 130.154 39.3846 129.267 40.231C128.388 41.0773 127.045 41.5005 125.239 41.5005C123.294 41.5005 121.914 41.061 121.101 40.1821C120.295 39.2951 119.864 38.2005 119.807 36.8984H121.918ZM133.112 27.9873H135.346V41H133.112V27.9873ZM133.112 23.0679H135.346V25.5581H133.112V23.0679ZM139.118 24.2764H141.34V27.9263H143.427V29.7207H141.34V38.2534C141.34 38.7091 141.494 39.0143 141.804 39.1689C141.975 39.2585 142.259 39.3032 142.658 39.3032C142.764 39.3032 142.878 39.3032 143 39.3032C143.122 39.2951 143.264 39.2829 143.427 39.2666V41C143.175 41.0732 142.91 41.1261 142.634 41.1587C142.365 41.1912 142.072 41.2075 141.755 41.2075C140.729 41.2075 140.034 40.9471 139.667 40.4263C139.301 39.8973 139.118 39.2137 139.118 38.3755V29.7207H137.348V27.9263H139.118V24.2764ZM151.081 27.6333C152.009 27.6333 152.908 27.853 153.779 28.2925C154.65 28.7238 155.313 29.2853 155.769 29.9771C156.208 30.6362 156.501 31.4053 156.647 32.2842C156.778 32.8864 156.843 33.8467 156.843 35.165H147.26C147.301 36.4915 147.614 37.5576 148.2 38.3633C148.786 39.1608 149.694 39.5596 150.922 39.5596C152.07 39.5596 152.985 39.1812 153.669 38.4243C154.06 37.9849 154.336 37.4762 154.499 36.8984H156.66C156.603 37.3786 156.411 37.9157 156.086 38.5098C155.769 39.0957 155.41 39.5758 155.012 39.9502C154.344 40.6012 153.518 41.0407 152.534 41.2686C152.005 41.3988 151.407 41.4639 150.739 41.4639C149.112 41.4639 147.732 40.8739 146.601 39.6938C145.47 38.5057 144.904 36.8455 144.904 34.7134C144.904 32.6138 145.474 30.9089 146.613 29.5986C147.753 28.2884 149.242 27.6333 151.081 27.6333ZM154.584 33.4194C154.495 32.4673 154.287 31.7064 153.962 31.1367C153.36 30.0788 152.355 29.5498 150.947 29.5498C149.938 29.5498 149.091 29.916 148.408 30.6484C147.724 31.3727 147.362 32.2964 147.321 33.4194H154.584Z" fill="#202124"/>
<circle cx="33.5" cy="32.5" r="21.5" fill="#202124"/>
</g>
<defs>
<clipPath id="clip0_416_64">
<rect width="198" height="65" rx="4" fill="white"/>
</clipPath>
</defs>
</svg>
